<svg height="512pt" viewBox="-10 0 511 512" width="512pt" xmlns="http://www.w3.org/2000/svg"><path d="m443.722656 400.980469h-395.222656c-9.136719 0-16.542969-7.40625-16.542969-16.542969v-17.195312c0-9.136719 7.40625-16.542969 16.542969-16.542969h395.222656c9.136719 0 16.546875 7.40625 16.546875 16.542969v17.195312c0 9.136719-7.410156 16.542969-16.546875 16.542969zm0 0" fill="#ea4444"/><path d="m460.273438 367.238281v17.195313c0 9.140625-7.414063 16.542968-16.546876 16.542968h-395.230468c-9.113282 0-16.515625-11.304687-16.546875-20.425781h392.488281c9.128906 0 16.542969-7.402343 16.542969-16.546875v-13.308594h2.746093c9.132813 0 16.546876 7.414063 16.546876 16.542969zm0 0" fill="#d93131"/><path d="m443.722656 236.136719h-395.222656c-9.136719 0-16.542969-7.410157-16.542969-16.542969v-17.199219c0-9.136719 7.40625-16.542969 16.542969-16.542969h395.222656c9.136719 0 16.546875 7.40625 16.546875 16.542969v17.199219c0 9.132812-7.410156 16.542969-16.546875 16.542969zm0 0" fill="#ea4444"/><path d="m460.273438 202.394531v17.191407c0 9.140624-7.414063 16.546874-16.546876 16.546874h-395.230468c-9.132813 0-16.546875-7.40625-16.546875-16.546874v-1.4375h390.546875c9.144531 0 16.546875-7.402344 16.546875-16.542969v-15.757813h4.683593c9.132813 0 16.546876 7.414063 16.546876 16.546875zm0 0" fill="#d93131"/><path d="m447.921875 350.484375h-403.621094c-6.816406 0-12.34375-5.527344-12.34375-12.347656v-40.683594c0-6.820313 5.527344-12.347656 12.34375-12.347656h403.621094c6.820313 0 12.347656 5.53125 12.347656 12.347656v40.683594c0 6.820312-5.53125 12.347656-12.347656 12.347656zm0 0" fill="#945b44"/><path d="m476.066406 129.679688c-21.40625-51.246094-66.703125-81.597657-111.476562-99.550782-75.191406-30.1484372-161.765625-30.1484372-236.957032 0-44.773437 17.953125-90.070312 48.304688-111.476562 99.550782-5.613281 13.433593-8.179688 27.730468-8.164062 42.070312.007812 8.480469 7.796874 15.324219 17.300781 15.324219h441.636719c9.503906 0 17.292968-6.84375 17.300781-15.324219.015625-14.339844-2.550781-28.636719-8.164063-42.070312zm0 0" fill="#ffc265"/><path d="m484.230469 171.75c-.011719 8.484375-7.792969 15.328125-17.304688 15.328125h-441.628906c-9.511719 0-17.292969-6.84375-17.304687-15.328125 0-2.554688.082031-5.105469.242187-7.652344h421.820313c9.5 0 17.292968-6.84375 17.304687-15.324218.007813-14.335938-2.550781-28.632813-8.164063-42.070313-15.027343-35.957031-53.3125-61.632813-83.425781-79.9375 2.957031 1.070313 5.894531 2.199219 8.820313 3.367187 44.78125 17.953126 90.066406 48.296876 111.476562 99.546876 5.617188 13.4375 8.175782 27.734374 8.164063 42.070312zm0 0" fill="#ffb541"/><path d="m414.054688 504.507812h-335.894532c-37.238281 0-67.429687-30.191406-67.429687-67.433593v-14c0-12.199219 9.890625-22.089844 22.085937-22.089844h426.582032c12.199218 0 22.089843 9.890625 22.089843 22.089844v14c0 37.242187-30.191406 67.433593-67.433593 67.433593zm0 0" fill="#ffc265"/><path d="m481.492188 423.078125v13.996094c0 37.246093-30.191407 67.429687-67.4375 67.429687h-335.898438c-23.785156 0-44.707031-12.320312-56.695312-30.933594 10.480468 6.714844 22.949218 10.609376 36.316406 10.609376h335.898437c37.242188 0 67.4375-30.179688 67.4375-67.425782v-13.996094c0-.570312-.019531-1.140624-.070312-1.699218 11.429687.828125 20.449219 10.371094 20.449219 22.019531zm0 0" fill="#ffb541"/><path d="m26.261719 301.660156c-3.386719 6.351563-.210938 14.300782 6.671875 16.414063 15.257812 4.683593 19.886718 16.128906 42.511718 16.128906 28.4375 0 28.4375-18.09375 56.878907-18.09375 28.441406 0 28.441406 18.09375 56.886719 18.09375 28.441406 0 28.441406-18.09375 56.886718-18.09375 28.445313 0 28.445313 18.09375 56.886719 18.09375 28.445313 0 28.445313-18.09375 56.886719-18.09375 28.449218 0 28.449218 18.09375 56.898437 18.09375 22.625 0 27.253907-11.445313 42.519531-16.128906 6.882813-2.113281 10.058594-10.058594 6.667969-16.414063l-8.828125-16.554687h-422.035156zm0 0" fill="#43cd8e"/><path d="m455.308594 236.363281h-417.710938c-13.054687 0-24.292968 10.035157-24.90625 23.078125-.65625 13.925782 10.441406 25.421875 24.222656 25.421875h43c4.496094 0 8.140626 3.644531 8.140626 8.140625v12c0 13.390625 10.292968 24.917969 23.671874 25.546875 14.28125.671875 26.074219-10.710937 26.074219-24.847656v-12.699219c0-4.496094 3.644531-8.140625 8.140625-8.140625h23.832032c4.496093 0 8.140624 3.644531 8.140624 8.140625v62.789063c0 13.734375 11.136719 24.871093 24.871094 24.871093 13.738282 0 24.875-11.136718 24.875-24.871093v-62.789063c0-4.496094 3.644532-8.140625 8.140625-8.140625h218.820313c13.058594 0 24.296875-10.035156 24.910156-23.078125.65625-13.921875-10.441406-25.421875-24.222656-25.421875zm0 0" fill="#fbc700"/><path d="m465.691406 394.171875c1.324219-2.976563 2.070313-6.269531 2.070313-9.734375v-17.195312c0-5.839844-2.09375-11.191407-5.566407-15.359376 3.4375-3.570312 5.566407-8.410156 5.566407-13.746093v-16.261719c2.425781-1.960938 4.375-4.5 5.605469-7.476562 2.183593-5.289063 1.890624-11.21875-.796876-16.261719l-4.578124-8.582031c10.792968-4.761719 18.445312-15.121094 19.023437-27.414063.414063-8.773437-2.6875-17.097656-8.738281-23.433594-3.695313-3.875-8.179688-6.679687-13.109375-8.28125 1.652343-3.257812 2.589843-6.9375 2.589843-10.835937v-17.195313c0-2.738281-.464843-5.371093-1.3125-7.828125h.484376c13.65625 0 24.78125-10.230468 24.792968-22.808594.015625-15.914062-2.925781-31.042968-8.742187-44.964843-19.066407-45.644531-57.960938-80.507813-115.601563-103.617188-77.066406-30.902343-165.46875-30.902343-242.535156 0-37.339844 14.972657-67.136719 35.171875-88.566406 60.035157-2.699219 3.136718-2.347656 7.867187.785156 10.570312 3.136719 2.699219 7.867188 2.347656 10.570312-.785156 19.84375-23.03125 47.699219-41.84375 82.789063-55.910156 73.523437-29.480469 157.859375-29.480469 231.378906 0 53.773438 21.558593 89.894531 53.683593 107.355469 95.484374 5.042969 12.078126 7.597656 25.257813 7.582031 39.171876-.003906 4.25-4.496093 7.839843-9.808593 7.839843h-301.382813c-.003906-.003906-.011719-.007812-.015625-.011719-.09375.003907-.195312.007813-.289062.011719h-139.949219c-5.3125 0-9.804688-3.589843-9.808594-7.839843-.011719-13.914063 2.539063-27.09375 7.585937-39.175782 1.789063-4.28125 3.804688-8.519531 5.988282-12.601562 1.957031-3.648438.582031-8.1875-3.066406-10.140625-3.644532-1.957031-8.1875-.582031-10.140626 3.066406-2.414062 4.5-4.636718 9.179687-6.609374 13.902344-5.816407 13.921875-8.757813 29.050781-8.742188 44.960937.011719 12.578125 11.132812 22.8125 24.792969 22.8125h.496093c-.851562 2.457032-1.328124 5.085938-1.328124 7.828125v17.195313c0 3.949218.964843 7.679687 2.664062 10.96875-12.296875 4.085937-21.285156 15.160156-21.917969 28.53125-.414062 8.773437 2.691407 17.09375 8.738281 23.433594 2.957032 3.097656 6.417969 5.511718 10.207032 7.175781l-4.5 8.4375c-2.691406 5.046875-2.980469 10.972656-.796875 16.261719 1.230469 2.976562 3.179687 5.515624 5.605469 7.476562v16.261719c0 5.335937 2.128906 10.175781 5.566406 13.746093-3.472656 4.167969-5.566406 9.519532-5.566406 15.359376v17.195312c0 3.464844.746093 6.757812 2.070312 9.734375-13.300781 2.894531-23.292969 14.75-23.292969 28.902344v14c0 41.3125 33.609375 74.925781 74.925781 74.925781h335.894532c41.3125 0 74.925781-33.613281 74.925781-74.925781v-14c-.003906-14.148438-9.996094-26.007813-23.292969-28.902344zm-426.242187-191.777344c0-3.339843 1.824219-6.257812 4.523437-7.828125h404.277344c2.699219 1.570313 4.523438 4.488282 4.523438 7.828125v17.195313c0 4.992187-4.058594 9.050781-9.050782 9.050781h-395.222656c-4.992188 0-9.050781-4.058594-9.050781-9.050781zm-14.660157 69.785157c-3.195312-3.34375-4.832031-7.742188-4.613281-12.382813.414063-8.789063 8.230469-15.9375 17.421875-15.9375h417.710938c4.625 0 8.933594 1.84375 12.128906 5.191406 3.191406 3.34375 4.828125 7.742188 4.609375 12.386719-.414063 8.785156-8.230469 15.9375-17.421875 15.9375h-218.824219c-8.621093 0-15.632812 7.011719-15.632812 15.628906v62.789063c0 9.582031-7.796875 17.378906-17.378907 17.378906-9.585937 0-17.382812-7.796875-17.382812-17.378906v-62.789063c0-8.617187-7.011719-15.628906-15.628906-15.628906h-23.835938c-8.621094 0-15.632812 7.011719-15.632812 15.628906v12.703125c0 4.796875-1.914063 9.265625-5.386719 12.578125-3.46875 3.308594-8.027344 5-12.84375 4.78125-9.113281-.429687-16.53125-8.53125-16.53125-18.0625v-12c0-8.617187-7.011719-15.628906-15.628906-15.628906h-43.003907c-4.625-.003906-8.933593-1.847656-12.125-5.195312zm369.40625 64.929687c6.800782 3.128906 13.972657 4.585937 22.574219 4.585937 16.402344 0 24.9375-5.425781 32.46875-10.214843 1.210938-.773438 2.375-1.507813 3.539063-2.203125v8.859375c0 2.675781-2.179688 4.851562-4.855469 4.851562h-212.769531v-18.089843c3.050781-.8125 6.582031-1.292969 10.945312-1.292969 12.039063 0 17.777344 3.648437 24.421875 7.875 7.527344 4.785156 16.0625 10.214843 32.464844 10.214843s24.9375-5.429687 32.464844-10.214843c6.644531-4.226563 12.382812-7.875 24.421875-7.875 1.648437 0 3.242187.070312 4.734375.207031 4.121093.375 7.769531-2.652344 8.148437-6.773438.378906-4.121093-2.652344-7.769531-6.773437-8.148437-1.949219-.179687-4.003907-.273437-6.109375-.273437-16.402344 0-24.933594 5.429687-32.464844 10.21875-6.644531 4.222656-12.378906 7.875-24.421875 7.875s-17.777344-3.652344-24.421875-7.875c-7.53125-4.789063-16.0625-10.21875-32.464844-10.21875-4.109375 0-7.714844.34375-10.945312.933593v-16.546875c0-.355468.292968-.644531.648437-.644531h37.53125c-.054687.078125-.097656.160156-.152343.242187h179.453124l6.710938 12.585938c.578125 1.082031.640625 2.355469.171875 3.492188-.265625.636718-.925781 1.773437-2.425781 2.230468-6.636719 2.039063-11.554688 5.164063-15.898438 7.925782-6.644531 4.226562-12.382812 7.875-24.425781 7.875-6.445313 0-11.476563-.992188-16.308594-3.214844-3.761719-1.730469-8.210937-.082032-9.941406 3.675781-1.726563 3.757813-.082031 8.207031 3.679687 9.9375zm-320.707031-44.75h6.425781c.355469 0 .648438.289063.648438.644531v12c0 7.585938 2.488281 14.582032 6.6875 20.167969-3.242188.960937-7.027344 1.535156-11.804688 1.535156-12.042968 0-17.78125-3.648437-24.421874-7.875-4.339844-2.757812-9.257813-5.886719-15.890626-7.921875-1.5-.460937-2.164062-1.597656-2.425781-2.230468-.472656-1.136719-.410156-2.410157.167969-3.492188l6.710938-12.589844h34.066406c-.054688-.078125-.105469-.160156-.164063-.238281zm83.257813 39.121094c3.945312 2.507812 8.179687 5.191406 13.675781 7.171875v4.339844h-126.121094c-2.675781 0-4.851562-2.179688-4.851562-4.855469v-8.855469c1.160156.695312 2.320312 1.429688 3.53125 2.199219 7.527343 4.789062 16.0625 10.214843 32.464843 10.214843 11.585938 0 19.234376-2.710937 25.386719-5.988281 3.277344 1.339844 6.820313 2.15625 10.539063 2.328125 8.953125.421875 17.433594-2.742187 23.894531-8.90625 1.613281-1.539062 3.046875-3.214844 4.289063-4.996094 7.421874 1.148438 12.039062 4.070313 17.191406 7.347657zm-11.726563-21.578125c.175781-1.378906.273438-2.777344.273438-4.195313v-12.703125c0-.355468.289062-.644531.648437-.644531h23.832032c.359374 0 .648437.289063.648437.644531v29.230469c-1.914063-1.039063-3.742187-2.195313-5.636719-3.398437-5.292968-3.371094-11.09375-7.042969-19.765625-8.933594zm-105.570312 57.339844c0-4.992188 4.058593-9.050782 9.050781-9.050782h122.023438c1.230468 16.726563 15.226562 29.964844 32.261718 29.964844 17.039063 0 31.035156-13.238281 32.265625-29.964844h208.671875c4.992188 0 9.050782 4.058594 9.050782 9.050782v17.195312c0 4.992188-4.058594 9.050781-9.050782 9.050781h-395.222656c-4.992188 0-9.050781-4.058593-9.050781-9.050781zm434.546875 69.832031c0 33.050781-26.890625 59.941406-59.941406 59.941406h-335.894532c-33.046875 0-59.9375-26.890625-59.9375-59.941406v-14c0-8.046875 6.546875-14.59375 14.59375-14.59375h426.582032c8.050781 0 14.597656 6.546875 14.597656 14.59375zm0 0"/><path d="m207.078125 52.523438c0 5.164062-4.1875 9.351562-9.351563 9.351562-5.164062 0-9.351562-4.1875-9.351562-9.351562 0-5.164063 4.1875-9.351563 9.351562-9.351563 5.164063 0 9.351563 4.1875 9.351563 9.351563zm0 0"/><path d="m303.851562 52.523438c0 5.164062-4.1875 9.351562-9.355468 9.351562-5.164063 0-9.351563-4.1875-9.351563-9.351562 0-5.164063 4.1875-9.351563 9.351563-9.351563 5.167968 0 9.355468 4.1875 9.355468 9.351563zm0 0"/><path d="m136.28125 92.460938c0 5.167968-4.1875 9.351562-9.351562 9.351562-5.164063 0-9.351563-4.183594-9.351563-9.351562 0-5.164063 4.1875-9.351563 9.351563-9.351563 5.164062 0 9.351562 4.1875 9.351562 9.351563zm0 0"/><path d="m255.464844 92.460938c0 5.167968-4.1875 9.351562-9.351563 9.351562-5.167969 0-9.355469-4.183594-9.355469-9.351562 0-5.164063 4.1875-9.351563 9.355469-9.351563 5.164063 0 9.351563 4.1875 9.351563 9.351563zm0 0"/><path d="m374.644531 92.460938c0 5.167968-4.183593 9.351562-9.351562 9.351562-5.164063 0-9.351563-4.183594-9.351563-9.351562 0-5.164063 4.1875-9.351563 9.351563-9.351563 5.167969 0 9.351562 4.1875 9.351562 9.351563zm0 0"/></svg>